<?xml version="1.0" encoding="UTF-8" standalone="no"?>
<!-- Created with Inkscape (http://www.inkscape.org/) -->

<svg
   width="217.10335"
   height="42.087502"
   id="svg3008"
   version="1.1"
   inkscape:version="1.4 (e7c3feb1, 2024-10-09)"
   sodipodi:docname="Logo_WhiteText_2024_Site.svg"
   inkscape:export-filename="C:\Users\conor\Desktop\Logo_Magento_Transparent_167x32.png"
   inkscape:export-xdpi="90"
   inkscape:export-ydpi="90"
   xmlns:inkscape="http://www.inkscape.org/namespaces/inkscape"
   xmlns:sodipodi="http://sodipodi.sourceforge.net/DTD/sodipodi-0.dtd"
   xmlns="http://www.w3.org/2000/svg"
   xmlns:svg="http://www.w3.org/2000/svg"
   xmlns:rdf="http://www.w3.org/1999/02/22-rdf-syntax-ns#"
   xmlns:cc="http://creativecommons.org/ns#"
   xmlns:dc="http://purl.org/dc/elements/1.1/">
  <defs
     id="defs3010" />
  <sodipodi:namedview
     id="base"
     pagecolor="#000000"
     bordercolor="#666666"
     borderopacity="1.0"
     inkscape:pageopacity="0"
     inkscape:pageshadow="2"
     inkscape:zoom="1.979899"
     inkscape:cx="98.237334"
     inkscape:cy="45.709402"
     inkscape:document-units="px"
     inkscape:current-layer="g2824"
     showgrid="false"
     fit-margin-top="0"
     fit-margin-left="0"
     fit-margin-right="0"
     fit-margin-bottom="0"
     inkscape:window-width="1712"
     inkscape:window-height="956"
     inkscape:window-x="2310"
     inkscape:window-y="328"
     inkscape:window-maximized="0"
     inkscape:showpageshadow="2"
     inkscape:pagecheckerboard="0"
     inkscape:deskcolor="#d1d1d1" />
  <metadata
     id="metadata3013">
    <rdf:RDF>
      <cc:Work
         rdf:about="">
        <dc:format>image/svg+xml</dc:format>
        <dc:type
           rdf:resource="http://purl.org/dc/dcmitype/StillImage" />
      </cc:Work>
    </rdf:RDF>
  </metadata>
  <g
     inkscape:label="Layer 1"
     inkscape:groupmode="layer"
     id="layer1"
     transform="translate(-474.30547,-742.747)">
    <g
       style="overflow:visible"
       id="g2824"
       transform="matrix(0.16700282,0,0,0.16700282,536.29325,754.45705)"
       inkscape:export-filename="C:\Users\conor\Desktop\LouderVoice_Logo_150_Wide.png"
       inkscape:export-xdpi="90"
       inkscape:export-ydpi="90">
      <g
         inkscape:export-ydpi="90"
         inkscape:export-xdpi="90"
         inkscape:export-filename="/home/conor/Dropbox/argolon/technical/website_content/logo/new_logo/loudervoice-blue-logo-transparent_01.png"
         transform="matrix(2.3397925,0,0,2.3397925,-373.56229,-74.880337)"
         id="Loudervoice"
         style="overflow:visible;fill:#ffffff">
        <g
           id="g7"
           style="fill:#ffffff">
          <path
             inkscape:connector-curvature="0"
             style="fill:#ffffff"
             d="M 10.681,34.542 H 1.019 v 73.995 h 41.279 v -8.015 H 10.681 Z m 62.903,19.652 c -14.6,0 -26.348,10.429 -26.348,28.214 0,16.796 11.199,27.336 25.47,27.336 h 0.11 c 12.625,0 26.348,-8.563 26.348,-28.325 0,-16.139 -10.319,-27.225 -25.58,-27.225 z m -0.438,48.304 h -0.11 c -9.332,0 -15.918,-8.781 -15.918,-20.419 0,-10.102 4.941,-20.639 16.248,-20.639 11.418,0 15.918,11.306 15.918,20.31 0,12.076 -6.917,20.748 -16.138,20.748 z m 82.666,-47.097 h -9.661 v 32.497 c 0,1.864 -0.33,3.622 -0.879,4.938 -1.756,4.392 -6.258,8.893 -12.734,8.893 -8.672,0 -11.856,-6.917 -11.856,-17.017 V 55.401 h -9.662 v 31.067 c 0,18.555 9.991,23.275 18.334,23.275 9.442,0 15.15,-5.599 17.565,-9.88 h 0.22 l 0.549,8.673 h 8.563 c -0.329,-4.172 -0.439,-9.004 -0.439,-14.603 z M 217.729,30.59 h -9.662 v 31.616 h -0.219 c -2.306,-4.172 -7.795,-8.013 -16.028,-8.013 -12.844,0 -23.933,10.757 -23.823,28.543 0,16.138 9.989,27.007 22.835,27.007 8.672,0 15.04,-4.501 18.004,-10.429 h 0.22 l 0.439,9.222 h 8.672 c -0.329,-3.623 -0.439,-9.004 -0.439,-13.725 V 30.59 Z m -9.662,55.66 c 0,1.536 -0.109,2.854 -0.439,4.061 -1.756,7.246 -7.685,11.638 -14.161,11.638 -10.321,0 -15.699,-8.893 -15.699,-19.761 0,-11.638 5.927,-20.419 15.918,-20.419 7.246,0 12.516,5.05 13.942,11.089 0.33,1.315 0.439,2.854 0.439,4.172 z m 46.876,-32.056 c -15.479,0 -25.029,12.625 -25.029,28.651 0,15.921 9.879,26.789 26.127,26.789 8.454,0 14.381,-1.866 17.785,-3.405 l -1.757,-6.914 c -3.513,1.536 -7.794,2.742 -14.71,2.742 -9.662,0 -17.895,-5.378 -18.114,-18.331 h 37.216 c 0.219,-1.099 0.329,-2.525 0.329,-4.504 10e-4,-9.77 -4.5,-25.028 -21.847,-25.028 z m -15.589,22.615 c 0.769,-6.697 4.94,-15.701 14.821,-15.701 10.758,0 13.394,9.553 13.283,15.701 z m 58.183,-10.98 h -0.326 l -0.44,-10.428 h -8.453 c 0.328,4.941 0.438,10.319 0.438,16.576 v 36.56 h 9.662 V 80.103 c 0,-1.538 0.108,-3.074 0.328,-4.503 1.318,-7.134 6.148,-12.295 12.956,-12.295 1.315,0 2.305,0.111 3.291,0.22 v -9.113 c -0.877,-0.108 -1.645,-0.218 -2.633,-0.218 -6.479,0 -12.407,4.501 -14.823,11.635 z M 401.61,54.194 c -14.603,0 -26.35,10.429 -26.35,28.214 0,16.796 11.198,27.336 25.472,27.336 h 0.108 c 12.627,0 26.35,-8.563 26.35,-28.325 0,-16.139 -10.319,-27.225 -25.58,-27.225 z m -0.437,48.304 h -0.111 c -9.331,0 -15.919,-8.781 -15.919,-20.419 0,-10.102 4.941,-20.639 16.247,-20.639 11.421,0 15.921,11.306 15.921,20.31 0,12.076 -6.919,20.748 -16.138,20.748 z m 43.033,-68.065 c -3.625,0 -6.039,2.634 -6.039,6.036 0,3.186 2.306,5.93 5.819,5.93 h 0.108 c 3.732,0 6.039,-2.745 6.039,-5.93 0.001,-3.402 -2.415,-6.036 -5.927,-6.036 z m -4.832,74.104 h 9.662 V 55.401 h -9.662 z m 50.391,-46.66 c 5.271,0 8.893,1.318 11.197,2.525 l 2.196,-7.354 c -2.634,-1.427 -7.684,-2.854 -13.394,-2.854 -17.348,0 -28.545,11.967 -28.545,28.322 0,16.25 10.431,27.118 26.461,27.118 7.134,0 12.732,-1.866 15.258,-3.073 l -1.647,-7.246 c -2.745,1.207 -6.365,2.525 -11.854,2.525 -10.54,0 -18.443,-7.577 -18.443,-19.873 -0.001,-10.977 6.584,-20.09 18.771,-20.09 z m 66.858,17.345 c 0,-9.77 -4.503,-25.028 -21.849,-25.028 -15.48,0 -25.03,12.625 -25.03,28.651 0,15.921 9.882,26.789 26.129,26.789 8.452,0 14.382,-1.866 17.785,-3.405 l -1.756,-6.914 c -3.515,1.536 -7.795,2.742 -14.712,2.742 -9.661,0 -17.896,-5.378 -18.114,-18.331 h 37.218 c 0.218,-1.099 0.329,-2.525 0.329,-4.504 z m -37.437,-2.413 c 0.769,-6.697 4.94,-15.701 14.822,-15.701 10.758,0 13.394,9.553 13.285,15.701 z"
             id="path9" />
        </g>
      </g>
      <path
         inkscape:connector-curvature="0"
         inkscape:export-ydpi="90"
         inkscape:export-xdpi="90"
         inkscape:export-filename="/home/conor/Dropbox/argolon/technical/website_content/logo/new_logo/loudervoice-blue-logo-transparent_01.png"
         style="fill:#00acef;fill-opacity:1;fill-rule:evenodd;stroke-width:1.3"
         clip-rule="evenodd"
         d="M 517.4658,-70.118856 435.63857,120.78715 c 3.27337,13.1356 -34.42771,-66.042978 -34.42771,-66.042978 h -24.13963 l 47.25912,124.327218 h 21.57757 L 541.0977,-70.118856 Z"
         id="path14" />
    </g>
  </g>
</svg>
